<?xml version="1.0" encoding="UTF-8" standalone="no"?><!DOCTYPE svg PUBLIC "-//W3C//DTD SVG 1.1//EN" "http://www.w3.org/Graphics/SVG/1.1/DTD/svg11.dtd"><svg width="100%" height="100%" viewBox="0 0 2134 2134" version="1.1" xmlns="http://www.w3.org/2000/svg" xmlns:xlink="http://www.w3.org/1999/xlink" xml:space="preserve" xmlns:serif="http://www.serif.com/" style="fill-rule:evenodd;clip-rule:evenodd;stroke-linejoin:round;stroke-miterlimit:2;"><rect x="0" y="-0" width="2134.095" height="2132.573" style="fill:none;fill-rule:nonzero;"/><clipPath id="_clip1"><rect x="0" y="-0" width="2134.095" height="2132.573" clip-rule="nonzero"/></clipPath><g clip-path="url(#_clip1)"><path d="M1494.974,2108.676c-190.86,26.868 -442.879,28.344 -636.398,19.782c-77.408,-3.543 -152.747,-9.743 -229.269,-20.963c-109.907,-15.944 -220.996,-43.402 -317.904,-98.023c-135.611,-76.175 -210.951,-196.637 -253.496,-343.376c-35.454,-123.119 -49.931,-264.839 -55.544,-392.978c-6.204,-139.358 -6.204,-277.83 0.295,-416.893c3.841,-87.099 11.227,-172.426 25.409,-258.049c16.841,-101.861 45.204,-204.018 97.203,-293.479c72.976,-125.777 185.247,-198.703 322.04,-241.515c127.339,-39.564 275.95,-54.621 409.493,-60.822c139.748,-6.2 278.904,-6.2 418.652,0c133.543,6.2 282.154,21.258 409.493,61.117c194.11,60.526 313.176,173.017 378.175,366.405c44.317,131.977 60.272,288.459 66.772,427.817c6.204,138.768 6.204,276.649 0,415.417c-3.545,78.241 -10.045,154.711 -21.568,232.067c-16.25,109.833 -44.317,222.028 -99.862,318.575c-45.204,78.241 -109.021,141.425 -187.61,185.712c-98.976,55.802 -213.61,83.556 -325.881,99.204" style="fill:#ff5a1f;fill-rule:nonzero;"/></g><g id="Logo_-_Base"><g id="Oscuro"><g id="Simbolo"><path d="M1467.136,474.787l262.051,0l0,309.16l-937.407,0l0,237.248l610.89,0l0,-53.732l72.749,0l0,213.268l-67.785,0l0,54.554l-615.839,0l0,236.412l-42.983,0l0,177.731l42.983,0l0,29.766l-310.011,0l0,-314.946l-76.875,0l0,-162.018l76.875,0l0,-728.266l309.983,0l0,0.823l327.354,0l0,-20.662l348.016,0l0,20.662Zm-919.213,61.999l-21.498,0l0,612.535l21.498,0l0,-612.535Z" style="fill:#f1e7d4;fill-rule:nonzero;"/></g></g></g></svg>