<?xml version="1.0" encoding="UTF-8" standalone="no"?><!DOCTYPE svg PUBLIC "-//W3C//DTD SVG 1.1//EN" "http://www.w3.org/Graphics/SVG/1.1/DTD/svg11.dtd"><svg width="100%" height="100%" viewBox="0 0 3958 3662" version="1.1" xmlns="http://www.w3.org/2000/svg" xmlns:xlink="http://www.w3.org/1999/xlink" xml:space="preserve" xmlns:serif="http://www.serif.com/" style="fill-rule:evenodd;clip-rule:evenodd;stroke-linejoin:round;stroke-miterlimit:2;"><g id="Logo_-_Base"><g id="Oscuro"><g id="Simbolo"><path d="M3174.583,61.75l783.167,0l0,923.958l-2801.542,0l0,709.042l1825.708,0l0,-160.583l217.417,0l0,637.375l-202.583,0l0,163.042l-1840.5,0l0,706.542l-128.458,0l0,531.167l128.458,0l0,88.958l-926.5,0l0,-941.25l-229.75,0l0,-484.208l229.75,0l0,-2176.5l926.417,0l0,2.458l978.333,0l0,-61.75l1040.083,0l0,61.75Zm-2747.167,185.292l-64.25,0l0,1830.625l64.25,0l0,-1830.625Z" style="fill:#f1e7d4;fill-rule:nonzero;"/></g></g></g></svg>