<?xml version="1.0" encoding="UTF-8" standalone="no"?><!DOCTYPE svg PUBLIC "-//W3C//DTD SVG 1.1//EN" "http://www.w3.org/Graphics/SVG/1.1/DTD/svg11.dtd"><svg width="100%" height="100%" viewBox="0 0 6250 733" version="1.1" xmlns="http://www.w3.org/2000/svg" xmlns:xlink="http://www.w3.org/1999/xlink" xml:space="preserve" xmlns:serif="http://www.serif.com/" style="fill-rule:evenodd;clip-rule:evenodd;stroke-linejoin:round;stroke-miterlimit:2;"><g id="Logo_-_Base"><g id="Oscuro"><g id="Logotipo"><path d="M609.042,40.292l150.25,0l0,177.25l-537.5,0l0,136.042l350.25,0l0,-30.792l41.708,0l0,122.292l-38.875,0l0,31.292l-353.083,0l0,135.542l-24.625,0l0,101.917l24.625,0l0,17.042l-177.708,0l-0,-180.583l-44.083,0l0,-92.875l44.083,0l0,-417.625l177.75,-0l0,0.458l187.667,0l0,-11.833l199.542,0l-0,11.875Zm-527.042,35.542l-12.333,0l0,351.208l12.333,0l0,-351.208Z" style="fill:#f1e7d4;fill-rule:nonzero;"/><path d="M1702.417,106.167l55.917,0l0,75.833l-55.917,0l0,550.25l-177.75,0l0,-170.625l45.5,0l0,-100.458l-9.958,0l0,16.125l-581.542,0l0,84.375l45.042,0l0,170.625l-177.75,0l0,-180.583l-44.083,0l0,-92.875l44.083,0l0,-418.083l177.75,0l0,313.292l500.958,0l0,-313.292l177.75,0l0,65.417Zm-818.5,-28.917l-12.333,0l0,351.208l12.333,0l0,-351.208Zm792.917,0l-11.833,0l0,351.208l11.833,0l0,-351.208Z" style="fill:#f1e7d4;fill-rule:nonzero;"/><path d="M2549.875,446.458l42.667,0l0,88.625l-42.667,0l0,172.5l-0.458,0l0,24.625l-284.375,0l0,-43.125l-22.292,0l0,43.125l-433.667,0l0,-49.292l36.958,0l0,-85.792l-45.042,0l0,-247.875l45.042,0l0,-261.083l34.125,-0l0,-40.292l137.458,0l0,542.667l363.042,0l0,-45.958l43.125,0l0,-95.25l-43.125,0l0,-401.458l169.208,0l0,398.583Zm-24.167,-363.5l-11.375,0l0,334.625l11.375,0l0,-334.625Z" style="fill:#f1e7d4;fill-rule:nonzero;"/><path d="M3423.833,457.833l44.542,0l0,92.875l-44.542,0l0,181.042l-177.25,0l0,-0.458l-426.083,0c-34.125,0 -64.917,-8.542 -93.375,-25.125l519.458,0l0,-15.167l-541.25,0c-21.792,-17.042 -38.875,-38.375 -51.167,-63.5c-12.792,-25.125 -18.958,-52.125 -18.958,-81.5l0,-188.625l26.542,0l0,-32.708l181.542,0l0,53.083l-21.333,0l0,151.208c0,18 6.167,33.667 18.958,46.458c12.792,12.792 27.958,18.958 45.958,18.958l359.75,0l0,-117.542l-182.958,0l0,-122.75l324.667,0l0,-30.792l33.167,0l0,31.292l2.375,0l0,103.333l-0.042,-0.083Zm-762.125,-252.625l-25.583,0c6.167,-47.375 26.542,-86.75 61.125,-118c34.583,-31.292 75.375,-46.917 123.208,-46.917l454.5,0l0,-16.125l136.5,0l0,16.125l12.333,0l0,151.208l-558.792,-0c-5.208,0 -9.958,0 -13.75,0.458l-8.042,0l0,117.542l-181.542,0l0,-104.25l0.042,-0.042Z" style="fill:#f1e7d4;fill-rule:nonzero;"/><path d="M4161.292,474.417l-142.167,-221.333l-65.417,100l-52.625,0.958l-166.833,251.667l45.042,0l-93.833,126.083l-174.417,0l70.625,-108.542l-30.333,0l179.625,-269.667l27,0l46.458,-71.083l-79.167,0l-35.083,-44.083l143.125,0l128.917,-197.167l0,-2.375l114.208,0l0,2.375l282.958,433.208l-198.125,0l0.042,-0.042Zm224.167,39.333l142.167,218l-200.958,0l-101.417,-158.292l-71.083,0l0,-54.042l36.5,0l-3.792,-5.667l198.583,0Z" style="fill:#f1e7d4;fill-rule:nonzero;"/><path d="M5517.292,41.708l-65.875,108.542l28.417,0l-167.292,268.75l-25.125,0l-43.583,71.083l73.917,0l32.208,43.583l-132.708,0l-120.375,197.167l0,1.875l-106.167,0l0,-1.875l-73.458,-119.917l-73,119.917l0,1.875l-106.167,0l0,-1.875l-120.375,-197.167l-133.167,0l32.708,-43.583l73.917,0l-43.583,-71.083l-25.125,0l-167.292,-268.75l28.417,-0l-65.875,-108.542l162.083,0l87.667,125.583l-42.167,0l155.458,251.208l49.292,0.458l61.125,100l35.083,-57.833l-99.542,-162.583l184.375,0l6.167,10.417l6.167,-10.417l184.375,0l-99.042,162.583l35.083,57.833l61.125,-100l49.292,-0.458l155,-251.208l-42.167,0l87.667,-125.583l162.583,0l-0.042,-0Zm-814.75,217.083l-132.25,-217.083l186.75,0l94.792,157.833l131.292,0l94.792,-157.833l186.75,0l-132.708,217.083l-184.833,0l3.792,-5.208l-66.833,0l3.333,5.208l-184.875,0Zm551.208,157.333l-9.958,-6.167l-180.583,288.167l9.958,6.167l180.583,-288.167Z" style="fill:#f1e7d4;fill-rule:nonzero;"/><path d="M6250,34.125l0,136.042l-36.958,0l-222.75,225.125l0,-183.417l41.25,-41.708l-200.958,0l0,-34.583l-100,0l0,34.583l-170.625,0l0,-136.042l180.583,0l0,-34.125l92.875,0l0,34.125l416.583,0Zm-65.458,562.583l65.458,-0l0,136.042l-419.458,0l0,-34.583l-100,0l0,34.583l-170.625,0l0,-136.042l49.75,0l146.917,-148.333l0,-22.75l62.542,-64.917l0,24.625l149.75,-151.667l0,183.417l-144.542,145.5l9,0l0,34.125l275.375,0l0,-42.667l75.833,0l0,42.667Z" style="fill:#f1e7d4;fill-rule:nonzero;"/></g></g></g></svg>