<?xml version="1.0" encoding="UTF-8"?>
<svg id="Capa_2" data-name="Capa 2" xmlns="http://www.w3.org/2000/svg" viewBox="0 0 1500 175.85">
  <defs>
    <style>
      .cls-1 {
        fill: #38392b;
      }
    </style>
  </defs>
  <g id="Logo_-_Base" data-name="Logo - Base">
    <g id="Claro">
      <g id="Logotipo">
        <path class="cls-1" d="M146.17,9.67h36.06v42.54H53.23v32.65h84.06v-7.39h10.01v29.35h-9.33v7.51H53.23v32.53h-5.91v24.46h5.91v4.09H10.58v-43.34H0v-22.29h10.58V9.55h42.66v.11h45.04v-2.84h47.89v2.84ZM19.68,18.2h-2.96v84.29h2.96V18.2Z"/>
        <path class="cls-1" d="M408.58,25.48h13.42v18.2h-13.42v132.06h-42.66v-40.95h10.92v-24.11h-2.39v3.87h-139.57v20.25h10.81v40.95h-42.66v-43.34h-10.58v-22.29h10.58V9.78h42.66v75.19h120.23V9.78h42.66v15.7ZM212.14,18.54h-2.96v84.29h2.96V18.54ZM402.44,18.54h-2.84v84.29h2.84V18.54Z"/>
        <path class="cls-1" d="M611.97,107.15h10.24v21.27h-10.24v41.4h-.11v5.91h-68.25v-10.35h-5.35v10.35h-104.08v-11.83h8.87v-20.59h-10.81v-59.49h10.81V21.16h8.19v-9.67h32.99v130.24h87.13v-11.03h10.35v-22.86h-10.35V11.49h40.61v95.66ZM606.17,19.91h-2.73v80.31h2.73V19.91Z"/>
        <path class="cls-1" d="M821.72,109.88h10.69v22.29h-10.69v43.45h-42.54v-.11h-102.26c-8.19,0-15.58-2.05-22.41-6.03h124.67v-3.64h-129.9c-5.23-4.09-9.33-9.21-12.28-15.24-3.07-6.03-4.55-12.51-4.55-19.56v-45.27h6.37v-7.85h43.57v12.74h-5.12v36.29c0,4.32,1.48,8.08,4.55,11.15,3.07,3.07,6.71,4.55,11.03,4.55h86.34v-28.21h-43.91v-29.46h77.92v-7.39h7.96v7.51h.57v24.8ZM638.81,49.25h-6.14c1.48-11.37,6.37-20.82,14.67-28.32,8.3-7.51,18.09-11.26,29.57-11.26h109.08v-3.87h32.76v3.87h2.96v36.29h-134.11c-1.25,0-2.39,0-3.3.11h-1.93v28.21h-43.57v-25.02Z"/>
        <path class="cls-1" d="M998.71,113.86l-34.12-53.12-15.7,24-12.63.23-40.04,60.4h10.81l-22.52,30.26h-41.86l16.95-26.05h-7.28l43.11-64.72h6.48l11.15-17.06h-19l-8.42-10.58h34.35l30.94-47.32v-.57h27.41v.57l67.91,103.97h-47.55ZM1052.51,123.3l34.12,52.32h-48.23l-24.34-37.99h-17.06v-12.97h8.76l-.91-1.36h47.66Z"/>
        <path class="cls-1" d="M1324.15,10.01l-15.81,26.05h6.82l-40.15,64.5h-6.03l-10.46,17.06h17.74l7.73,10.46h-31.85l-28.89,47.32v.45h-25.48v-.45l-17.63-28.78-17.52,28.78v.45h-25.48v-.45l-28.89-47.32h-31.96l7.85-10.46h17.74l-10.46-17.06h-6.03l-40.15-64.5h6.82l-15.81-26.05h38.9l21.04,30.14h-10.12l37.31,60.29,11.83.11,14.67,24,8.42-13.88-23.89-39.02h44.25l1.48,2.5,1.48-2.5h44.25l-23.77,39.02,8.42,13.88,14.67-24,11.83-.11,37.2-60.29h-10.12l21.04-30.14h39.02ZM1128.61,62.11l-31.74-52.1h44.82l22.75,37.88h31.51l22.75-37.88h44.82l-31.85,52.1h-44.36l.91-1.25h-16.04l.8,1.25h-44.36ZM1260.9,99.87l-2.39-1.48-43.34,69.16,2.39,1.48,43.34-69.16Z"/>
        <path class="cls-1" d="M1500,8.19v32.65h-8.87l-53.46,54.03v-44.02l9.9-10.01h-48.23v-8.3h-24v8.3h-40.95V8.19h43.34V0h22.29v8.19h99.98ZM1484.3,143.21h15.7v32.65h-100.67v-8.3h-24v8.3h-40.95v-32.65h11.94l35.26-35.6v-5.46l15.01-15.58v5.91l35.94-36.4v44.02l-34.69,34.92h2.16v8.19h66.09v-10.24h18.2v10.24Z"/>
      </g>
    </g>
  </g>
</svg>